<?xml version="1.0" encoding="UTF-8"?>
<svg id="Capa_2" data-name="Capa 2" xmlns="http://www.w3.org/2000/svg" viewBox="0 0 122.1 122.1">
  <defs>
    <style>
      .cls-1 {
        fill: #000;
      }

      .cls-1, .cls-2 {
        stroke-width: 0px;
      }

      .cls-2 {
        fill: #5a13eb;
      }
    </style>
  </defs>
  <g id="Capa_1-2" data-name="Capa 1">
    <g>
      <g>
        <path class="cls-1" d="M36.17,63.15c1.85,0,3.78-.16,5.82-.46,6.55-.93,13.37-2.85,20.08-2.87,3.3-.01,6.57.44,9.78,1.7.59.24,1.46.67,2.19,1.03.73.38,1.32.69,1.38.69,0,0-1.94-3.33-2.98-4.64-4.77-5.99-10.65-7.72-17.01-7.7-8.75.03-18.42,3.34-27.41,3.37-4.55.01-8.92-.81-12.92-3.33,5.25,8.73,12.11,12.24,21.08,12.21Z"/>
        <path class="cls-1" d="M70.17,72.49c3.31-.01,6.58.45,9.79,1.7,1.19.47,3.47,1.72,3.56,1.72h.01s-1.95-3.32-2.98-4.63c-4.77-5.99-10.65-7.72-17.02-7.7-8.74.03-18.41,3.33-27.4,3.36-4.55.01-8.92-.81-12.92-3.32,5.25,8.72,12.11,12.23,21.08,12.2,1.85,0,3.78-.16,5.81-.45,6.56-.94,13.38-2.86,20.08-2.88Z"/>
        <path class="cls-1" d="M52.55,88.69c1.85,0,3.79-.16,5.82-.45,6.55-.94,13.37-2.85,20.08-2.87,3.3-.01,6.58.44,9.77,1.69.59.24,1.46.67,2.19,1.04.73.37,1.32.68,1.38.68,0,0-1.94-3.32-2.98-4.63-4.77-5.99-10.64-7.72-17.01-7.7-8.74.03-18.42,3.33-27.41,3.36-4.55.01-8.92-.81-12.92-3.32,5.26,8.73,12.11,12.23,21.08,12.2Z"/>
        <path class="cls-1" d="M91.69,38.01l-1.18,1.45c-.41.5-.43,1.12-.03,1.28l4.76,1.97c.07.03.14.04.21.04.36-.02.62-.45.39-.79l-2.89-4.26c-.1-.14-.25-.2-.43-.19-.26.01-.58.19-.83.49Z"/>
        <path class="cls-1" d="M73.23,53.13c.2.41.42.82.64,1.22l.87,1.4c.13.19,1.35,2.15,2.85,4.55l.31.51.3.48.2.32,16.96,27.13c.11-.11.22-.21.32-.32,3.76-3.89,5.83-9.36,5.23-15.16-.35-3.32-1.54-6.36-3.33-8.91,0-.01-.01-.02-.01-.02-.71-1.02-1.58-1.92-2.5-2.74l-1.88-1.7s-1.98-1.73-4.24-3.76c-2.91-2.59-6.32-5.65-6.72-6.17-.78-.99-1.39-2.14-1.77-3.37-.05-.19-.11-.38-.15-.58-.11-.45-.19-.92-.24-1.4-.24-2.26.27-4.43,1.33-6.26,1.16,1.54,3.01,2.5,5.03,2.49.21,0,.43-.01.64-.03.43-.04.84-.13,1.23-.25.34-1.02.46-2.13.34-3.26-.21-2.06-1.19-3.86-2.64-5.12,2.54.61,4.82,1.98,6.53,3.89.17-.69.23-1.42.15-2.17-.02-.18-.05-.36-.08-.53-.16-.86-.5-1.66-.97-2.35-.27-.37-.57-.73-.9-1.06,0,0,0,0,0,0-1.85-1.88-4.42-3.04-7.21-3.03-.34,0-.68.02-1.03.05-2.74.29-5.1,1.66-6.73,3.62-.06.08-.13.16-.19.24,0,.02-.02.03-.03.04-1.67,2.16-2.94,4.63-3.69,7.3-.69,2.49-.93,5.15-.65,7.88.27,2.54.97,4.92,2.02,7.08Z"/>
      </g>
      <path class="cls-2" d="M61.05,122.1C27.39,122.1,0,94.72,0,61.05S27.39,0,61.05,0s61.05,27.39,61.05,61.05-27.39,61.05-61.05,61.05ZM61.05,5C30.14,5,5,30.15,5,61.05s25.14,56.05,56.05,56.05,56.05-25.14,56.05-56.05S91.96,5,61.05,5Z"/>
    </g>
  </g>
</svg>